<?xml version="1.0" encoding="UTF-8" standalone="no"?>
<!DOCTYPE svg PUBLIC "-//W3C//DTD SVG 1.1//EN" "http://www.w3.org/Graphics/SVG/1.1/DTD/svg11.dtd">
<svg width="100%" height="100%" viewBox="0 0 100 100" version="1.1" xmlns="http://www.w3.org/2000/svg" xmlns:xlink="http://www.w3.org/1999/xlink" xml:space="preserve" xmlns:serif="http://www.serif.com/" style="fill-rule:evenodd;clip-rule:evenodd;stroke-linejoin:round;stroke-miterlimit:2;">
    <g transform="matrix(1.16534,-0.483738,0.483738,1.16534,-52.2429,7.43676)">
        <path d="M72.649,28.411L78.221,30.719L67.572,56.428L93.281,45.779L95.589,51.351L69.88,62L95.589,72.649L93.281,78.221L67.572,67.572L78.221,93.281L72.649,95.589L62,69.88L51.351,95.589L45.779,93.281L56.428,67.572L30.719,78.221L28.411,72.649L54.12,62L28.411,51.351L30.719,45.779L56.428,56.428L45.779,30.719L51.351,28.411L62,54.12L72.649,28.411Z" style="fill:rgb(23,255,0);"/>
        <path d="M62,48.943L70.819,27.653C71.237,26.642 72.396,26.162 73.407,26.58L78.979,28.888C79.99,29.307 80.47,30.466 80.051,31.477L71.233,52.767L92.523,43.949C93.534,43.53 94.693,44.01 95.112,45.021L97.42,50.593C97.838,51.604 97.358,52.763 96.347,53.181L75.057,62L96.347,70.819C97.358,71.237 97.838,72.396 97.42,73.407L95.112,78.979C94.693,79.99 93.534,80.47 92.523,80.051L71.233,71.233L80.051,92.523C80.47,93.534 79.99,94.693 78.979,95.112L73.407,97.42C72.396,97.838 71.237,97.358 70.819,96.347L62,75.057L53.181,96.347C52.763,97.358 51.604,97.838 50.593,97.42L45.021,95.112C44.01,94.693 43.53,93.534 43.949,92.523L52.767,71.233L31.477,80.051C30.466,80.47 29.307,79.99 28.888,78.979L26.58,73.407C26.162,72.396 26.642,71.237 27.653,70.819L48.943,62L27.653,53.181C26.642,52.763 26.162,51.604 26.58,50.593L28.888,45.021C29.307,44.01 30.466,43.53 31.477,43.949L52.767,52.767L43.949,31.477C43.53,30.466 44.01,29.307 45.021,28.888L50.593,26.58C51.604,26.162 52.763,26.642 53.181,27.653L62,48.943ZM72.649,28.411L78.221,30.719L67.572,56.428L93.281,45.779L95.589,51.351L69.88,62L95.589,72.649L93.281,78.221L67.572,67.572L78.221,93.281L72.649,95.589L62,69.88L51.351,95.589L45.779,93.281L56.428,67.572L30.719,78.221L28.411,72.649L54.12,62L28.411,51.351L30.719,45.779L56.428,56.428L45.779,30.719L51.351,28.411L62,54.12L72.649,28.411Z"/>
    </g>
</svg>
