<?xml version="1.0" encoding="UTF-8" standalone="no"?>
<!DOCTYPE svg PUBLIC "-//W3C//DTD SVG 1.1//EN" "http://www.w3.org/Graphics/SVG/1.1/DTD/svg11.dtd">
<svg width="100%" height="100%" viewBox="0 0 150 150" version="1.1" xmlns="http://www.w3.org/2000/svg" xmlns:xlink="http://www.w3.org/1999/xlink" xml:space="preserve" xmlns:serif="http://www.serif.com/" style="fill-rule:evenodd;clip-rule:evenodd;stroke-linejoin:round;stroke-miterlimit:2;">
    <g transform="matrix(1,0,0,1.00333,-9,-11.0367)">
        <path d="M84,11C125.394,11 159,44.606 159,86C159,127.394 125.394,161 84,161C42.606,161 9,127.394 9,86C9,44.606 42.606,11 84,11ZM84,18.377C98.435,18.377 111.82,22.91 122.808,30.629C125.622,32.606 122.808,30.629 122.808,30.629C122.808,30.629 133.508,65.843 107.623,100C73.699,144.764 36.879,134.484 36.879,134.484C36.879,134.484 39.183,136.723 36.879,134.484C24.236,122.193 16.377,105.007 16.377,86C16.377,48.678 46.678,18.377 84,18.377Z" style="fill:rgb(65,43,105);fill-opacity:0.35;"/>
    </g>
</svg>
